<?xml version="1.0" encoding="utf-8"?>
<!-- Generator: Adobe Illustrator 25.2.0, SVG Export Plug-In . SVG Version: 6.00 Build 0)  -->
<svg version="1.1" id="Capa_1" xmlns="http://www.w3.org/2000/svg" xmlns:xlink="http://www.w3.org/1999/xlink" x="0px" y="0px"
	 viewBox="0 0 1080 436" style="enable-background:new 0 0 1080 436;" xml:space="preserve">
<style type="text/css">
	.st0{fill:#0667FE;}
	.st1{fill:#FFFFFF;stroke:#FFFFFF;stroke-miterlimit:10;}
	.st2{fill:#4D4D4D;stroke:#FFFFFF;stroke-width:2;stroke-miterlimit:10;}
</style>
<path class="st0" d="M247.49,281.11h-16.04l4.42-10.32l47.93-110.61l2.03-4.42h9.59l2.03,4.42l47.93,110.61l4.42,10.32h-16.04
	l-2.03-4.42l-41.11-94.94l-41.11,94.94L247.49,281.11z"/>
<path class="st0" d="M419.67,281.11h-14.75v-7.37V163.13v-7.37h11.25l2.21,3.13l63.78,91.43l0.18-87.19v-7.37h14.75v7.37
	l-0.18,110.61v7.37h-11.25l-2.21-3.13l-63.78-91.44v87.2V281.11z"/>
<path class="st0" d="M570.83,281.11v-7.37V163.13v-7.37h7.37h40.92h0.37c13.64,1.35,25.07,7.68,34.29,18.99
	c10.08,12.41,14.38,26.98,12.9,43.69c1.35,16.22-2.77,30.6-12.35,43.14c-9.34,11.8-20.96,18.31-34.84,19.54h-0.37h-0.37h-40.56
	H570.83z M618.39,266.36c9.22-0.86,17.02-5.22,23.41-13.09c7.86-9.71,11.25-21.32,10.14-34.84v-0.55c0.86-11.31-1.6-21.5-7.37-30.6
	c-6.51-10.2-15.24-15.79-26.18-16.77h-32.81v95.86H618.39z"/>
<path class="st0" d="M889.01,281.11h-16.04l4.42-10.32l47.93-110.61l2.03-4.42h9.59l2.03,4.42l47.93,110.61l4.42,10.32h-16.04
	l-2.03-4.42l-41.11-94.94l-41.11,94.94L889.01,281.11z"/>
<polygon class="st0" points="135.23,218.43 185.18,168.29 197.9,155.75 176.89,155.75 174.86,157.97 121.77,211.06 121.61,211.06 
	121.61,210.14 113.66,210.14 113.66,163.13 113.66,155.75 98.91,155.75 98.91,163.13 98.91,210.14 88.41,210.14 88.41,226.02 
	98.91,226.02 98.91,273.73 98.91,281.11 113.66,281.11 113.66,273.73 113.66,226.02 121.61,226.02 121.61,225.8 121.77,225.8 
	174.86,278.9 176.89,281.11 197.9,281.11 185.18,268.57 "/>
<path class="st0" d="M824.86,271.71c-7.25-24.33-14.44-40.68-21.57-49.04c9.71-4.18,16.28-10.88,19.72-20.09
	c1.47-3.81,2.21-7.68,2.21-11.61c0-10.57-4.3-19.36-12.9-26.36c-7.13-5.9-15.48-8.85-25.07-8.85l-46.64,0.18h-7.37v7.37l-0.16,46.83
	H710.6v15.88h22.45v47.71v7.37h14.75v-7.37V225.8h37.05c6.02,4.55,11,10.94,14.93,19.17c3.32,7.13,7,17.39,11.06,30.79l1.47,5.35
	h15.49L824.86,271.71z M787.43,211.06h-23.6l0.18,0.18H747.8V170.5h39.45c8.23,0,14.62,2.95,19.17,8.85
	c2.7,3.57,4.06,7.44,4.06,11.61c0,7.25-3.44,12.84-10.32,16.78C796.22,209.95,791.98,211.06,787.43,211.06z"/>
<rect x="-324.9" y="-145" class="st0" width="181" height="181"/>
<rect x="-324.9" y="69" class="st1" width="181" height="181"/>
<rect x="-324.9" y="284" class="st2" width="181" height="181"/>
<rect x="-324.4" y="499.5" width="181" height="181"/>
</svg>
